<?xml version="1.0" encoding="utf-8"?>
<!-- Generator: Adobe Illustrator 25.1.0, SVG Export Plug-In . SVG Version: 6.00 Build 0)  -->
<svg version="1.1" id="Слой_1" xmlns="http://www.w3.org/2000/svg" xmlns:xlink="http://www.w3.org/1999/xlink" x="0px" y="0px"
	 viewBox="0 0 210 55" style="enable-background:new 0 0 210 55;" xml:space="preserve">
<g id="СКОБ_4_">
	<g>
		<path d="M43,1.8h10.2l-7.2,26.3l-5.8-0.4c0-0.1,2.3-20.3,2.3-20.4C42.4,7.3,43,1.8,43,1.8z"/>
		<path d="M42.2,8.6c-1-1.6-2.8-3.8-5.6-5.3c-8-4.3-19,0.2-24.9,6.1c-7.6,7.6-9.4,20-4.5,29.9c6,12.2,19.6,15.8,28.4,15
			c2.5-0.2,9.4-0.8,14.7-6.1c1.8-1.8,2.9-3.6,3.6-4.8l-4.6-3.8c-2.4,5.3-7.6,8.8-13.4,9c-6.3,0.2-12.1-3.5-14.6-9.3
			c-1.4-4.7-3.5-14.8,1.5-24.2c1.4-2.6,4-7.4,8.1-7.6c3.9-0.2,8.2,4,10.1,10.6"/>
	</g>
	<g id="О_5_">
		<path d="M133,2.8c-14.7,0-26.5,11.6-26.5,25.8c0,14.3,11.9,25.8,26.5,25.8s26.5-11.6,26.5-25.8S147.7,2.8,133,2.8z M129.7,48.3
			c-6.2-1.1-10.1-11.1-10.1-18.8c-0.1-10.8,7.4-23.1,15-22.6c6.5,0.5,11.9,10.4,12.1,18.8C146.9,37.4,137.2,49.6,129.7,48.3z"/>
		<path d="M145.8,1.7h6.1l-14.1,22.7h-3.2V6.9c3.1-0.7,6.1-1.3,9.2-2C144.4,3.8,145.1,2.7,145.8,1.7z"/>
	</g>
	<g id="Б_5_">
		<path d="M204.6,33.8c-2.9-7.1-12.5-11.1-24.1-9.6V8.7l11,1.9l0.8,10.5h5.7l2.1-19.4h-5.4v1.2l-33.8-0.6L159.5,8h6.4v46.5
			c7.5,0,15,0,22.5,0c1.1,0.1,7.8,0.4,12.8-5c3-3.2,3.9-6.9,4.2-8.6C205.8,37.6,205.2,35.3,204.6,33.8z M191.1,45.9
			c-2.3,3.3-6.5,4.9-10.7,4.2V30c4.1-1.1,8.2,0.1,10.5,3.1c1.7,2.1,2,4.6,2,5.7C193,39.9,193.1,43.1,191.1,45.9z"/>
	</g>
	<g>
		<path d="M54.8,1.6l-1.4,5.3h5.8v45.6H73c-0.1-17-0.2-33.9-0.4-50.9C66.7,1.6,60.7,1.6,54.8,1.6z"/>
		<path d="M95,13.3c-1.7,0.1-6.5,0.5-10.9,4.5c-2.8,2.6-4.3,5.6-4.9,7.3c3.7,0,7.4,0.1,11,0.1c2,2.7,4.4,6.5,6.5,11.3
			c1.9,4.3,3,8.3,3.6,11.5c2.1,0,4.1,0,6.1-0.1c-0.1,1.8-0.1,3.6-0.2,5.3l-19.7-0.5c-3.4-18.9-5.4-23-6.6-23.1c-0.1,0-0.9,0-2.2,0
			c-1.2,0-2.2,0-2.7,0c0.2-2.6,1.1-10.3,6.6-17.2c6.1-7.7,13.8-9.4,16-9.7"/>
		<polygon points="98.3,0.5 102,0.5 99,18.5 94.8,18.5 94.8,14.1 		"/>
	</g>
</g>
</svg>